HIERARCHY
ROOT Hips
{
	OFFSET -285.066589 92.472481 297.089996
	CHANNELS 6 Xposition Yposition Zposition Zrotation Yrotation Xrotation 
	JOINT LeftUpLeg
	{
		OFFSET 0.103457 1.857824 10.548504
		CHANNELS 3 Xrotation Yrotation Zrotation
		JOINT LeftLeg
		{
			OFFSET 43.500000 -0.000038 -0.000017
			CHANNELS 3 Xrotation Yrotation Zrotation
			JOINT LeftFoot
			{
				OFFSET 42.372200 0.000011 0.000019
				CHANNELS 3 Xrotation Yrotation Zrotation
				JOINT LeftToe
				{
					OFFSET 17.300011 0.000002 -0.000008
					CHANNELS 3 Xrotation Yrotation Zrotation
					End Site
					{
						OFFSET 0.000000 0.000000 0.000000
					}
				}
			}
		}
	}
	JOINT RightUpLeg
	{
		OFFSET 0.103457 1.857822 -10.548492
		CHANNELS 3 Xrotation Yrotation Zrotation
		JOINT RightLeg
		{
			OFFSET 43.500038 -0.000027 0.000036
			CHANNELS 3 Xrotation Yrotation Zrotation
			JOINT RightFoot
			{
				OFFSET 42.372261 0.000015 0.000010
				CHANNELS 3 Xrotation Yrotation Zrotation
				JOINT RightToe
				{
					OFFSET 17.299988 -0.000006 0.000008
					CHANNELS 3 Xrotation Yrotation Zrotation
					End Site
					{
						OFFSET 0.000000 0.000000 0.000000
					}
				}
			}
		}
	}
	JOINT Spine
	{
		OFFSET 6.901965 -2.603737 0.000006
		CHANNELS 3 Xrotation Yrotation Zrotation
		JOINT Spine1
		{
			OFFSET 12.588104 -0.000005 0.000007
			CHANNELS 3 Xrotation Yrotation Zrotation
			JOINT Spine2
			{
				OFFSET 12.343202 0.000026 -0.000008
				CHANNELS 3 Xrotation Yrotation Zrotation
				JOINT Neck
				{
					OFFSET 25.832890 -0.000029 -0.000007
					CHANNELS 3 Xrotation Yrotation Zrotation
					JOINT Head
					{
						OFFSET 11.766619 0.000021 0.000012
						CHANNELS 3 Xrotation Yrotation Zrotation
						End Site
						{
							OFFSET 0.000000 0.000000 0.000000
						}
					}
				}
				JOINT LeftShoulder
				{
					OFFSET 19.745909 -1.480377 6.000106
					CHANNELS 3 Xrotation Yrotation Zrotation
					JOINT LeftArm
					{
						OFFSET 11.284110 -0.000009 -0.000020
						CHANNELS 3 Xrotation Yrotation Zrotation
						JOINT LeftForeArm
						{
							OFFSET 33.000053 0.000014 0.000021
							CHANNELS 3 Xrotation Yrotation Zrotation
							JOINT LeftHand
							{
								OFFSET 25.200008 0.000006 -0.000004
								CHANNELS 3 Xrotation Yrotation Zrotation
								End Site
								{
									OFFSET 0.000000 0.000000 0.000000
								}
							}
						}
					}
				}
				JOINT RightShoulder
				{
					OFFSET 19.746101 -1.480381 -6.000081
					CHANNELS 3 Xrotation Yrotation Zrotation
					JOINT RightArm
					{
						OFFSET 11.284131 -0.000022 0.000003
						CHANNELS 3 Xrotation Yrotation Zrotation
						JOINT RightForeArm
						{
							OFFSET 33.000095 0.000014 0.000005
							CHANNELS 3 Xrotation Yrotation Zrotation
							JOINT RightHand
							{
								OFFSET 25.199774 0.000153 0.000423
								CHANNELS 3 Xrotation Yrotation Zrotation
								End Site
								{
									OFFSET 0.000000 0.000000 0.000000
								}
							}
						}
					}
				}
			}
		}
	}
}
MOTION
Frames: 14
Frame Time: 0.033333
-273.476410 75.235001 -388.589996 88.391076 4.216301 -76.137936 132.583917 3.378408 171.389349 -78.520121 2.757709 0.324491 100.409894 0.005687 4.062891 21.454558 0.003114 0.000016 164.285666 0.459196 -171.626808 -100.330404 -1.933065 0.326361 92.310048 -0.415560 -1.516186 21.454548 -0.003090 0.000000 12.530296 -0.377363 0.420424 15.045324 -0.806168 0.788124 14.727233 -0.801543 0.792975 5.943331 -12.384578 -24.057043 -26.952275 27.073832 -38.998949 164.896954 -75.115374 14.023939 -6.397408 52.158132 28.542602 -46.059384 -22.436009 2.149890 0.559413 -9.842430 17.966698 -170.847893 77.413200 10.820066 -21.837143 -58.137150 -22.387731 -51.142694 20.155390 -2.132910 2.443678 18.407273 -8.276157 
-273.889313 77.817284 -395.724396 89.495265 3.982491 -75.911009 139.849216 2.516202 172.955867 -75.306565 3.406665 0.113380 102.005201 -0.014441 2.730683 21.454560 0.003117 0.000018 154.237679 1.082504 -171.059684 -100.992502 -1.698183 0.671170 92.744639 -0.621821 -1.420164 21.454546 -0.003087 -0.000004 12.346056 -0.125191 0.017072 14.679253 -0.251470 0.018112 14.361161 -0.251491 0.019624 7.159099 -12.069797 -24.978951 -26.112187 28.309621 -40.101133 162.816888 -75.342949 16.138943 -7.486392 50.758585 23.424248 -58.000566 -22.153071 2.546578 -2.046562 -13.265201 22.377066 -169.915039 77.388714 11.771983 -12.498740 -58.425185 -32.608600 -49.201285 18.471972 -1.955927 2.455793 15.417967 -12.585305 
-274.376587 80.521637 -403.100006 90.306296 3.523655 -76.391978 148.046591 1.353600 174.323134 -70.463141 3.681314 0.000077 101.883500 -0.061101 1.013699 21.454558 0.003114 0.000018 145.556618 1.597193 -171.727580 -96.470610 -0.893255 -0.259798 92.639345 0.053492 -0.984492 21.454545 -0.003096 -0.000003 12.176288 0.078377 -0.366585 14.339151 0.201687 -0.720598 14.021074 0.197196 -0.721816 8.485042 -11.588367 -25.484191 -25.773837 29.146145 -40.740139 162.454110 -76.356577 16.464113 -7.549644 50.496504 16.373258 -70.830899 -18.908557 2.836781 -4.562303 -9.675010 28.251618 -167.350099 77.824418 14.387949 -2.822630 -57.066681 -45.441593 -50.750689 17.917770 -1.969515 2.768388 14.216994 -7.907607 
-274.931702 83.039909 -410.888489 90.773139 3.082843 -77.447023 156.832399 0.249202 174.858375 -64.401458 3.991916 0.023032 99.754633 -0.188324 -0.501321 21.454562 0.003105 0.000017 139.451945 1.382695 -173.381388 -86.925133 0.791505 -0.990769 90.809776 0.478085 -1.061397 21.454555 -0.003101 0.000001 11.944340 0.226595 -0.746883 13.872531 0.541237 -1.461152 13.554525 0.532267 -1.464397 9.448098 -11.068796 -25.475798 -24.743472 29.101629 -40.255888 162.111084 -77.282463 16.771005 -6.911771 50.443003 10.398305 -80.984604 -14.098213 2.936179 -5.687820 -10.247306 31.543559 -162.697005 78.931941 19.122091 4.418744 -55.186422 -55.624408 -52.792284 16.409931 -1.936856 2.774333 14.945058 -5.704055 
-275.635010 85.197777 -419.266602 90.692427 2.484842 -79.333986 166.118096 -0.890506 175.073226 -57.857563 3.460403 0.789914 95.610696 -1.061582 -3.809434 21.454555 0.003117 0.000020 136.735879 0.817496 -175.040004 -73.135207 2.260076 -1.245905 87.726226 0.727639 -0.305022 21.454553 -0.003092 -0.000001 11.664478 0.235410 -1.042848 13.310971 0.589411 -2.051616 12.993092 0.576869 -2.055145 11.321646 -10.503703 -25.094568 -25.358163 28.740347 -39.764238 160.581040 -77.564099 18.313972 -5.368921 49.621717 5.297236 -88.239310 -9.035923 2.900986 -5.843209 -9.399771 32.678244 -156.260002 80.495207 25.641100 9.450546 -53.861178 -63.653784 -54.183792 15.743064 -1.939716 2.202006 13.527946 -7.490973 
-276.477295 86.823608 -428.120697 90.266626 1.543620 -81.238045 174.989993 -1.927900 175.619531 -52.446321 2.451397 2.534021 89.444660 -3.202706 -8.480717 21.454553 0.003115 0.000016 137.860934 -0.056703 -174.480625 -55.184770 2.208975 -0.094700 84.543993 0.214842 1.115384 21.454553 -0.003085 0.000003 11.387489 0.223595 -1.342515 12.755411 0.593991 -2.652101 12.437663 0.577855 -2.655663 13.420753 -10.618546 -24.606895 -25.885922 28.842615 -39.374155 160.924106 -77.725408 17.957990 -4.916078 48.508140 3.102122 -91.220127 -6.425515 2.850848 -8.838800 -11.315039 32.090530 -149.100134 82.054034 32.856902 13.245080 -52.723391 -69.397379 -55.122068 15.228315 -1.937679 1.283960 10.702874 -8.254909 
-277.412415 87.205620 -437.587799 88.907193 0.707930 -82.868042 -177.133252 -1.797894 175.563251 -49.044887 2.526247 4.531107 83.070830 -6.358685 -14.149840 21.454557 0.003111 0.000022 140.552234 -0.471691 -172.873632 -37.260280 1.676585 0.566746 84.223418 -0.215371 1.251208 21.454557 -0.003090 0.000001 10.905533 -0.015315 -1.731105 11.796036 0.146135 -3.454638 11.478565 0.125153 -3.455472 16.098638 -10.494078 -24.029673 -26.348148 28.778558 -38.747817 158.652112 -78.423706 20.232897 -2.711232 48.349615 4.084127 -91.844229 -5.664558 2.825424 -7.669058 -12.622700 29.057831 -148.947984 81.805060 33.019050 16.937059 -49.215703 -72.942336 -57.054544 14.770392 -1.975199 0.279310 5.714878 -8.998804 
-278.481903 86.842621 -447.092712 86.948322 -0.498774 -83.958010 -170.890322 -0.606293 177.431567 -48.843417 2.992184 6.882385 79.304944 -9.695135 -18.531842 21.454562 0.003122 0.000014 143.758967 -0.066499 -174.552273 -23.174591 2.868813 2.880090 84.049098 -1.000180 5.355492 21.454551 -0.003081 0.000006 10.446225 -0.330612 -2.123953 10.888295 -0.459705 -4.269555 10.571164 -0.485577 -4.266720 17.591301 -11.180501 -23.811663 -24.243973 27.971558 -37.389381 155.540073 -78.777401 23.373023 -0.267126 48.377407 7.004576 -90.789033 -6.385595 2.828738 -8.855705 -13.210575 27.754168 -137.675058 81.830666 44.424093 19.690728 -47.043922 -74.258117 -59.680151 13.557699 -1.988556 -0.513018 1.642872 -10.690574 
-279.441711 85.496719 -455.966705 85.639220 -1.786861 -84.677004 -167.769499 -0.079189 -179.039790 -53.782757 2.162315 7.864502 79.656576 -10.719543 -20.045379 21.454550 0.003097 0.000016 145.234342 -0.015602 -175.297406 -18.909715 2.875217 4.227292 85.325059 -2.127849 4.630956 21.454553 -0.003102 -0.000007 10.022711 -0.527498 -2.382484 10.050687 -0.845964 -4.801805 9.733759 -0.875023 -4.796653 19.596593 -11.299188 -23.750127 -24.549037 27.607768 -37.135175 153.267136 -79.055956 25.662102 1.125012 48.097390 10.593314 -88.661422 -7.972637 2.845019 -8.191745 -13.390673 27.618889 -127.810024 81.152756 54.434121 21.255972 -44.904146 -74.739987 -62.333331 12.506387 -2.016340 -1.222930 0.933582 -10.752403 
-280.074493 83.875687 -464.012390 85.844242 -3.342216 -85.412964 -167.822310 -1.069708 -178.733633 -62.589354 2.647970 6.386612 81.180002 -9.498901 -20.343087 21.454557 0.003103 0.000014 145.296592 -1.069195 -173.438160 -24.349387 2.495850 3.605754 82.079988 -1.843378 3.364701 21.454553 -0.003081 0.000004 9.757930 -0.413483 -2.364945 9.516299 -0.631027 -4.755869 9.199378 -0.659848 -4.751987 20.499515 -11.352440 -24.335810 -22.793280 26.563154 -36.688645 151.294933 -78.936141 27.667974 0.785534 47.933069 13.842049 -85.394092 -10.306877 2.863598 -7.028036 -13.592888 26.658898 -122.998060 79.945718 59.375039 21.558698 -43.000873 -74.146252 -64.576263 11.855628 -2.057923 -0.634103 2.610476 -12.291151 
-280.429810 82.065948 -471.735992 87.469725 -5.553254 -86.588986 -169.468127 -3.928605 178.730068 -73.175307 4.410433 2.760688 82.735687 -6.439789 -19.034648 21.454560 0.003112 0.000014 144.086064 -3.488684 -172.930145 -36.359081 3.130144 3.408548 74.876242 -5.242443 -9.396914 21.454551 -0.003090 -0.000000 9.769708 -0.017721 -2.170128 9.523906 0.143247 -4.334256 9.206806 0.116966 -4.335053 20.912448 -11.282212 -24.869499 -22.782776 26.506468 -37.188498 152.427966 -78.756678 26.530050 -1.027489 48.194313 16.557719 -81.026309 -13.450239 2.892023 -5.940077 -12.270886 25.890327 -124.314921 79.159700 58.093996 19.969783 -42.506333 -73.217210 -64.746170 12.629239 -2.117468 0.597927 5.934246 -16.340300 
-280.195099 79.961746 -479.351288 91.168026 -8.150787 -89.392949 -172.649697 -9.452113 177.160846 -84.619910 4.564246 0.196550 85.042699 -3.189432 -14.003484 21.454557 0.003116 0.000020 143.593198 -8.954004 -172.050771 -49.197047 1.949301 3.455064 79.078496 -5.898108 -13.509092 21.454553 -0.003100 -0.000001 10.151115 0.825951 -1.768975 10.263396 1.805617 -3.458061 9.945757 1.784557 -3.468877 20.646612 -10.425042 -25.154151 -24.860427 25.962930 -37.920548 158.860132 -77.764873 20.053936 -4.376880 48.125701 18.453918 -74.669506 -17.346317 2.890428 -5.947451 -12.515968 24.900775 -132.737063 78.121675 49.617906 13.441384 -42.751390 -69.187296 -59.757687 14.064489 -2.025836 1.345986 10.730465 -20.949812 
-279.967987 78.905052 -486.472595 93.910750 -9.193701 -91.864992 -179.371587 -12.223611 -179.613143 -93.405132 3.866909 -1.305897 87.505290 -1.150834 -10.235938 21.454563 0.003105 0.000023 145.525117 -12.132092 -172.497766 -56.678313 3.214182 3.640313 86.409570 -5.096664 -13.540529 21.454551 -0.003087 0.000000 10.267490 1.403985 -1.749195 10.482074 2.960682 -3.364935 10.164119 2.940181 -3.382747 20.568966 -10.384726 -25.303469 -25.549868 25.742578 -38.191822 161.707051 -75.969558 17.242917 -5.161536 47.988008 22.134821 -65.410386 -20.770334 2.742466 -6.686876 -17.208086 21.910014 -138.309077 78.312524 43.947066 4.512214 -46.802932 -61.523933 -49.162226 16.370649 -1.814680 0.674091 11.333866 -22.447598 
-279.810486 78.355972 -492.969788 95.244167 -9.305036 -93.713986 171.423842 -12.546909 -174.686596 -98.769098 3.809767 -0.630047 90.880544 -1.304919 -10.020015 21.454560 0.003100 0.000019 148.105030 -13.358400 -171.579420 -61.598423 3.462561 2.812661 92.565708 -3.930434 -14.748916 21.454553 -0.003088 -0.000001 10.243150 1.607321 -1.853205 10.425489 3.375052 -3.555360 10.107472 3.353413 -3.575674 21.112144 -9.755438 -25.482710 -25.866720 25.459781 -38.337971 160.978994 -76.237335 17.971945 -6.232108 49.553180 26.138878 -53.409330 -22.019172 2.368322 -4.837768 -22.076684 14.528900 -145.061033 76.740597 37.142094 -3.914513 -50.308937 -46.038603 -40.659027 17.905216 -1.664888 1.972091 11.346589 -22.592374 
